<?xml version="1.0" encoding="utf-8"?>
<!-- Generator: Adobe Illustrator 23.0.1, SVG Export Plug-In . SVG Version: 6.00 Build 0)  -->
<svg version="1.1" id="Camada_1" xmlns="http://www.w3.org/2000/svg" xmlns:xlink="http://www.w3.org/1999/xlink" x="0px" y="0px"
	 viewBox="0 0 510.24 170.08" style="enable-background:new 0 0 510.24 170.08;" xml:space="preserve">
<style type="text/css">
	.st0{fill-rule:evenodd;clip-rule:evenodd;fill:#F9F4F4;}
</style>
<path class="st0" d="M209.88,43.77h-20.09l39.04,72.61h14.4c6.26,0,8.63-5.12,5.26-11.38l-29.86-55.54
	C216.95,46.33,213.01,43.77,209.88,43.77"/>
<g>
	<defs>
		<path id="SVGID_1_" d="M209.88,43.77h-20.09l39.04,72.61h14.4c6.26,0,8.63-5.12,5.26-11.38l-29.86-55.54
			C216.95,46.33,213.01,43.77,209.88,43.77"/>
	</defs>
	<use xlink:href="#SVGID_1_"  style="overflow:visible;fill-rule:evenodd;clip-rule:evenodd;fill:#F9F4F4;"/>
	<clipPath id="SVGID_2_">
		<use xlink:href="#SVGID_1_"  style="overflow:visible;"/>
	</clipPath>
</g>
<path class="st0" d="M273.64,43.77h20.1l-35.98,66.92c-1.68,3.13-5.62,5.69-8.75,5.69h-20.09l35.98-66.92
	C266.58,46.33,270.51,43.77,273.64,43.77"/>
<path class="st0" d="M242.26,43.77h20.09L243.8,78.26c-3.05,5.68-8.58,8.99-15.03,8.99h-15.58l20.32-37.79
	C235.19,46.33,239.13,43.77,242.26,43.77"/>
<path class="st0" d="M304.55,43.77h20.1L317.8,56.5c-3.05,5.68-8.59,8.99-15.03,8.99h-15.58l8.62-16.03
	C297.49,46.33,301.43,43.77,304.55,43.77"/>
</svg>
